<svg width="63" height="57" viewBox="0 0 63 57" fill="none" xmlns="http://www.w3.org/2000/svg">
<rect x="1" y="16.5106" width="49.0214" height="39.4894" rx="4" stroke="#D4E4FE" stroke-width="1.5" stroke-miterlimit="15.9925" stroke-linecap="round" stroke-linejoin="round" stroke-dasharray="6 6"/>
<path d="M52 48H19.75C19.5511 48 19.3603 47.921 19.2197 47.7803C19.079 47.6397 19 47.4489 19 47.25V0.75C19 0.551088 19.079 0.360322 19.2197 0.21967C19.3603 0.0790176 19.5511 0 19.75 0L44.2465 0C44.4454 4.24781e-05 44.6361 0.079088 44.7767 0.21975L52.5303 7.97325C52.6709 8.11387 52.75 8.3046 52.75 8.5035V47.25C52.75 47.4489 52.671 47.6397 52.5303 47.7803C52.3897 47.921 52.1989 48 52 48Z" fill="url(#paint0_linear)"/>
<path d="M15.25 28.7095L18.25 27.3842L20.344 30.598H15.25V28.7095Z" fill="#8DE2A5"/>
<path d="M51.25 48H19C18.8011 48 18.6103 47.921 18.4697 47.7803C18.329 47.6397 18.25 47.4489 18.25 47.25V0.75C18.25 0.551088 18.329 0.360322 18.4697 0.21967C18.6103 0.0790176 18.8011 0 19 0L43.807 0L52 8.193V47.25C52 47.4489 51.921 47.6397 51.7803 47.7803C51.6397 47.921 51.4489 48 51.25 48Z" fill="url(#paint1_linear)"/>
<path d="M43.8071 0V7.443C43.8071 7.64191 43.8861 7.83268 44.0268 7.97333C44.1675 8.11398 44.3582 8.193 44.5571 8.193H52.0001L48.3251 3.768L43.8071 0Z" fill="url(#paint2_linear)"/>
<g opacity="0.9">
<path d="M43.2153 13.5438H40.0778C39.6477 13.5438 39.2935 13.1875 39.2935 12.7547V11.1766C39.2935 10.7439 39.6477 10.3875 40.0778 10.3875H43.2153C43.6454 10.3875 43.9996 10.7439 43.9996 11.1766V12.7547C43.9996 13.1875 43.658 13.5438 43.2153 13.5438Z" fill="#50AAA0"/>
<path d="M36.9531 13.5438H33.8156C33.3855 13.5438 33.0312 13.1875 33.0312 12.7547V11.1766C33.0312 10.7439 33.3855 10.3875 33.8156 10.3875H36.9531C37.3832 10.3875 37.7374 10.7439 37.7374 11.1766V12.7547C37.7374 13.1875 37.3832 13.5438 36.9531 13.5438Z" fill="#50AAA0"/>
<path d="M43.2153 18.2656H40.0778C39.6477 18.2656 39.2935 17.9092 39.2935 17.4765V15.8983C39.2935 15.4656 39.6477 15.1093 40.0778 15.1093H43.2153C43.6454 15.1093 43.9996 15.4656 43.9996 15.8983V17.4765C43.9996 17.9219 43.658 18.2656 43.2153 18.2656Z" fill="#50AAA0"/>
<path d="M36.9531 18.2656H33.8156C33.3855 18.2656 33.0312 17.9092 33.0312 17.4765V15.8983C33.0312 15.4656 33.3855 15.1093 33.8156 15.1093H36.9531C37.3832 15.1093 37.7374 15.4656 37.7374 15.8983V17.4765C37.7374 17.9219 37.3832 18.2656 36.9531 18.2656Z" fill="#50AAA0"/>
<path fill-rule="evenodd" clip-rule="evenodd" d="M28.3249 19.8437H28.3251H30.6779C31.1081 19.8437 31.4623 20.2 31.4623 20.6328V21.4218L31.4625 21.4218V22.2109C31.4625 22.6436 31.1083 23 30.6782 23H27.5407C27.1106 23 26.7563 22.6436 26.7563 22.2109V20.6328C26.7563 20.2 27.1106 19.8437 27.5407 19.8437H28.3249Z" fill="#50AAA0"/>
<path fill-rule="evenodd" clip-rule="evenodd" d="M28.3378 15.1093H28.3249H27.5534C27.1233 15.1093 26.769 15.4656 26.769 15.8983V17.4765C26.769 17.9092 27.1233 18.2656 27.5534 18.2656H28.3232C28.3238 18.2656 28.3243 18.2656 28.3249 18.2656H30.678C31.1208 18.2656 31.4624 17.9219 31.4624 17.4765V15.8983C31.4624 15.4656 31.1081 15.1093 30.678 15.1093H28.3378Z" fill="#50AAA0"/>
<path fill-rule="evenodd" clip-rule="evenodd" d="M37.7374 21.4218V20.6328C37.7374 20.2 37.3832 19.8437 36.9531 19.8437H33.8156C33.3855 19.8437 33.0312 20.2 33.0312 20.6328V21.4218C33.0312 21.4218 33.0312 21.4218 33.0312 21.4219V22.2109C33.0312 22.6436 33.3855 23 33.8156 23H36.9531C37.3832 23 37.7374 22.6436 37.7374 22.2109V21.4218Z" fill="#50AAA0"/>
<path fill-rule="evenodd" clip-rule="evenodd" d="M43.9991 21.4218V20.6328C43.9991 20.2 43.6449 19.8437 43.2148 19.8437H40.0773C39.6472 19.8437 39.293 20.2 39.293 20.6328V21.4218C39.293 21.4218 39.293 21.4218 39.293 21.4219V22.2109C39.293 22.6436 39.6472 23 40.0773 23H43.2148C43.6449 23 43.9991 22.6436 43.9991 22.2109V21.4218Z" fill="#50AAA0"/>
<path fill-rule="evenodd" clip-rule="evenodd" d="M27.5534 13.5438H28.3249H28.3378H30.678C31.1208 13.5438 31.4624 13.1875 31.4624 12.7547V11.1766C31.4624 10.7439 31.1081 10.3875 30.678 10.3875H28.3378H28.3249H27.5534C27.1233 10.3875 26.769 10.7439 26.769 11.1766V12.7547C26.769 13.1875 27.1233 13.5438 27.5534 13.5438Z" fill="#50AAA0"/>
</g>
<path d="M44.5165 43.375H16.5775C16.4031 43.3751 16.2305 43.3408 16.0694 43.2741C15.9083 43.2074 15.7619 43.1097 15.6386 42.9864C15.5153 42.8631 15.4175 42.7167 15.3508 42.5556C15.2842 42.3945 15.2499 42.2218 15.25 42.0475V30.0355H44.5165C44.8685 30.0357 45.206 30.1756 45.455 30.4245C45.7039 30.6734 45.8438 31.0109 45.844 31.363V42.0475C45.844 42.3995 45.7041 42.7372 45.4552 42.9861C45.2062 43.2351 44.8686 43.375 44.5165 43.375Z" fill="url(#paint3_linear)"/>
<path d="M18.25 27.3842H16.576C16.4019 27.3841 16.2295 27.4183 16.0686 27.4849C15.9077 27.5514 15.7616 27.649 15.6384 27.7721C15.5153 27.8952 15.4176 28.0413 15.351 28.2021C15.2843 28.363 15.25 28.5354 15.25 28.7095C15.2499 28.8836 15.2841 29.0561 15.3507 29.217C15.4173 29.3779 15.515 29.5242 15.6382 29.6473C15.7613 29.7705 15.9075 29.8681 16.0684 29.9347C16.2294 30.0013 16.4018 30.0356 16.576 30.0355H18.25V27.3842Z" fill="#50AAA0"/>
<path d="M21.03 33.5L22.29 35.61L23.52 33.5H25.28L23.26 36.6L25.38 39.8H23.57L22.19 37.59L20.9 39.8H19.15L21.19 36.6L19.24 33.5H21.03ZM26.1932 33.5H27.7132V38.62H30.2032V39.8H26.1932V33.5ZM33.04 33.38C33.48 33.38 33.86 33.4267 34.18 33.52C34.5 33.6067 34.7767 33.7133 35.01 33.84L34.67 34.95C34.41 34.8167 34.1467 34.7133 33.88 34.64C33.62 34.56 33.37 34.52 33.13 34.52C32.8233 34.52 32.59 34.5767 32.43 34.69C32.27 34.8033 32.19 34.9533 32.19 35.14C32.19 35.3533 32.2667 35.51 32.42 35.61C32.5733 35.7033 32.81 35.8033 33.13 35.91L33.72 36.1C33.9533 36.18 34.17 36.28 34.37 36.4C34.57 36.5133 34.74 36.6467 34.88 36.8C35.0267 36.9533 35.14 37.1267 35.22 37.32C35.3 37.5133 35.34 37.7233 35.34 37.95C35.34 38.2167 35.29 38.47 35.19 38.71C35.09 38.9433 34.9367 39.15 34.73 39.33C34.53 39.51 34.2733 39.6533 33.96 39.76C33.6533 39.86 33.29 39.91 32.87 39.91C32.4767 39.91 32.1 39.87 31.74 39.79C31.3867 39.7033 31.06 39.5833 30.76 39.43L31.1 38.32C31.3867 38.46 31.6667 38.57 31.94 38.65C32.2133 38.73 32.5 38.77 32.8 38.77C33.1533 38.77 33.4067 38.7133 33.56 38.6C33.72 38.48 33.8 38.32 33.8 38.12C33.8 38.0533 33.7867 37.9867 33.76 37.92C33.7333 37.8533 33.68 37.7867 33.6 37.72C33.5267 37.6533 33.42 37.59 33.28 37.53C33.1467 37.4633 32.9733 37.3967 32.76 37.33L32.27 37.16C32.0367 37.0733 31.82 36.9767 31.62 36.87C31.42 36.7633 31.2467 36.6367 31.1 36.49C30.96 36.3433 30.85 36.1733 30.77 35.98C30.69 35.7867 30.65 35.5567 30.65 35.29C30.65 35.0167 30.7 34.7633 30.8 34.53C30.9067 34.2967 31.06 34.0967 31.26 33.93C31.4667 33.7567 31.7167 33.6233 32.01 33.53C32.31 33.43 32.6533 33.38 33.04 33.38ZM37.7488 33.5L39.0088 35.61L40.2388 33.5H41.9988L39.9788 36.6L42.0988 39.8H40.2888L38.9088 37.59L37.6188 39.8H35.8688L37.9088 36.6L35.9588 33.5H37.7488Z" fill="white"/>
<path d="M48.819 35.4648C46.8646 34.8133 45.0052 36.6727 45.6567 38.6271L49.2803 49.4978C50.091 51.9299 53.6007 51.7114 54.1034 49.1976L54.9844 44.7926L59.3895 43.9115C61.9033 43.4088 62.1218 39.8991 59.6897 39.0884L48.819 35.4648Z" fill="#0246B1" stroke="white" stroke-width="3"/>
<defs>
<linearGradient id="paint0_linear" x1="35.875" y1="-23.9902" x2="35.875" y2="-22.0657" gradientUnits="userSpaceOnUse">
<stop stop-color="#F3F7FF"/>
<stop offset="0.99" stop-color="#B5D1FF"/>
</linearGradient>
<linearGradient id="paint1_linear" x1="1148.87" y1="-260.592" x2="1148.87" y2="7390.9" gradientUnits="userSpaceOnUse">
<stop stop-color="#EDFFEA"/>
<stop offset="0.99" stop-color="#B5D1FF"/>
</linearGradient>
<linearGradient id="paint2_linear" x1="457.865" y1="-191.954" x2="457.865" y2="-32.7638" gradientUnits="userSpaceOnUse">
<stop stop-color="#F3F7FF"/>
<stop offset="0.99" stop-color="#B5D1FF"/>
</linearGradient>
<linearGradient id="paint3_linear" x1="853.403" y1="463.809" x2="853.403" y2="1163.25" gradientUnits="userSpaceOnUse">
<stop stop-color="#8CE1A4"/>
<stop offset="1" stop-color="#78C2A4"/>
</linearGradient>
</defs>
</svg>
