<?xml version="1.0" encoding="utf-8"?>
<!-- Generator: Adobe Illustrator 25.2.1, SVG Export Plug-In . SVG Version: 6.00 Build 0)  -->
<svg version="1.1" id="Layer_1" xmlns="http://www.w3.org/2000/svg" xmlns:xlink="http://www.w3.org/1999/xlink" x="0px" y="0px"
	 viewBox="0 0 1980 305.56" style="enable-background:new 0 0 1980 305.56;" xml:space="preserve">
<style type="text/css">
	.st0{fill:#150A84;}
	.st1{fill:url(#ESG_1_);}
</style>
<g id="Group_473">
	<g id="diginex">
		<path class="st0" d="M716.84,38.49v79.72c-9.71-17.89-26.3-29.13-47.5-29.13c-35.75,0-62.82,29.39-62.82,68.23
			s27.07,68.23,62.82,68.23c21.19,0,37.79-11.24,47.5-29.13v26.06h29.11V38.49H716.84z M676.75,188.23
			c-22.98,0-39.84-13.29-39.84-30.92c0-17.63,16.86-30.92,39.84-30.92s40.09,13.29,40.09,30.92
			C716.84,174.95,699.73,188.23,676.75,188.23z"/>
		<path class="st0" d="M790.07,75.04c13.54,0,23.75-8.94,23.75-20.7c0-11.5-10.22-20.44-23.75-20.44
			c-13.28,0-23.49,8.94-23.49,20.44C766.58,66.09,776.8,75.04,790.07,75.04z M775.52,222.47h29.11V92.16h-29.11V222.47z"/>
		<path class="st0" d="M937.53,92.16v25.04c-9.71-17.38-26.3-28.11-47.24-28.11c-36,0-62.82,28.36-62.82,65.93
			c0,37.56,26.82,66.18,62.82,66.18c20.94,0,37.54-10.99,47.24-28.11v15.08c0,18.65-14.81,30.66-37.8,30.66
			c-15.83,0-29.36-5.37-35.24-13.8h-30.39c7.66,30.15,31.92,49.06,65.63,49.06c40.35,0,67.17-26.06,67.17-65.67V92.16H937.53z
			 M897.69,185.93c-22.98,0-40.09-13.29-40.09-30.92c0-17.63,17.1-30.92,40.09-30.92s39.84,13.29,39.84,30.92
			C937.53,172.65,920.68,185.93,897.69,185.93z"/>
		<path class="st0" d="M1010.52,75.04c13.54,0,23.75-8.94,23.75-20.7c0-11.5-10.22-20.44-23.75-20.44
			c-13.28,0-23.49,8.94-23.49,20.44C987.03,66.09,997.25,75.04,1010.52,75.04z M995.97,222.47h29.11V92.16h-29.11V222.47z"/>
		<path class="st0" d="M1131.93,89.09c-21.19,0-37.79,10.48-47.75,30.41V92.16h-29.11v130.32h29.11v-70.78
			c0-15.33,14.3-25.3,35.24-25.3c20.17,0,33.2,9.71,33.2,24.79v71.29h29.11v-83.81C1181.73,108.76,1161.81,89.09,1131.93,89.09z"/>
		<path class="st0" d="M1341.73,158.08c0-39.86-30.13-68.99-70.23-68.99c-40.09,0-70.23,29.39-70.23,68.23s30.13,68.23,70.48,68.23
			c31.92,0,57.97-17.89,67.67-44.21h-32.17c-5.87,5.62-19.41,9.97-34.73,9.97c-20.68,0-35.75-8.94-41.11-23h109.55
			C1341.47,165.24,1341.73,161.4,1341.73,158.08z M1271.5,123.33c19.41,0,35.24,8.69,40.35,22.74h-80.19
			C1237.02,132.27,1252.35,123.33,1271.5,123.33z"/>
		<path class="st0" d="M1478.7,92.16h-37.03l-29.88,41.65h-4.34l-30.13-41.65h-34.22l43.92,64.14l-45.71,66.18h36.77l30.39-41.91
			h4.59l30.9,41.91h33.96l-44.43-64.65L1478.7,92.16z"/>
	</g>
	<g id="Group_394">
		<path id="Vector" class="st0" d="M343.2,50.08c2.62-0.46,4.01-0.92,5.55-0.92c25.9,0,51.95-0.31,77.84,0.31
			c18.03,0.46,32.99,7.71,46.55,20.65c17.11,16.18,23.43,35.45,23.12,57.96c-0.15,18.5,0,36.99,0,55.49
			c-0.31,39.77-32.83,72.91-72.45,73.06c-55.8,0.31-111.44,0-167.24,0.15c-37.76,0.15-72.45-33.6-71.98-72.6
			c0.15-15.41,0.31-30.83-0.15-46.24c-0.15-6.63,2.16-8.32,8.48-8.17c11.56,0.46,23.12,0.31,34.68,0c4.93-0.15,6.78,1.7,6.78,6.63
			c-0.31,14.33-0.15,28.82,0,43.16c0.15,16.96,10.48,27.28,27.44,27.28c52.41,0,104.82,0,157.22,0c16.96,0,27.59-10.33,27.75-27.13
			c0.15-17.73,0.15-35.45,0-53.18c-0.15-16.18-11.1-26.97-27.28-27.13c-16.19-0.15-32.37-0.15-48.55,0c-4.78,0-7.4-1.08-8.32-6.47
			C359.69,77.52,353.68,63.34,343.2,50.08z"/>
		<path id="Vector_2" class="st0" d="M167.77,247c-29.9,0-58.57,1.08-87.4-0.31c-36.22-1.7-66.13-34.37-66.28-70.6
			c-0.15-21.12,0.62-42.23-0.15-63.2C12.86,76.83,43.07,41.84,81.3,39.99c22.5-1.08,45.16-1.08,67.67-1.23
			c32.37-0.15,64.74-0.31,97.11,0c23.27,0.15,44.08,6.94,59.96,24.82c11.71,13.1,18.65,28.21,18.81,45.93
			c0.15,16.65,0,33.45,0.15,50.1c0,5.39-2,7.24-7.24,7.09c-11.87-0.31-23.58-0.31-35.45,0c-5.09,0.15-6.63-1.54-6.47-6.78
			c0.31-13.56,0.31-27.28,0.15-40.85c-0.15-19.11-8.48-28.36-27.44-29.9c-7.86-0.62-15.88-0.46-23.89-0.46
			c-42.08,0-84.31,0-126.39,0c-3.08,0-6.17,0-9.25,0.31c-16.03,1.54-25.43,10.94-25.9,26.97c-0.46,17.42-0.46,34.99,0,52.41
			c0.46,18.19,11.1,28.36,29.29,28.52c15.41,0.15,30.83,0.15,46.24,0c5.7-0.15,8.17,1.85,8.94,7.71
			C149.74,218.95,156.83,233.13,167.77,247z"/>
	</g>
	
		<linearGradient id="ESG_1_" gradientUnits="userSpaceOnUse" x1="1541.9049" y1="-14.1111" x2="1933.4767" y2="339.6819" gradientTransform="matrix(1 0 0 -1 0 305.4454)">
		<stop  offset="0" style="stop-color:#C2216F"/>
		<stop  offset="1" style="stop-color:#655DE0"/>
	</linearGradient>
	<path id="ESG" class="st1" d="M1538.43,189.62v-29.15h81.05v-34.6h-81.05v-28.2h88.87V61.89h-118.01V225.4h119.2v-35.78H1538.43z
		 M1711.78,228.25c37.2,0,66.83-20.85,66.83-52.85c0-30.33-27.25-44.31-59.01-49.05c-13.51-1.9-42.66-6.87-42.66-18.72
		c0-8.77,13.98-14.69,32.71-14.69c20.85,0,35.78,7.35,35.78,16.83h30.1c0-28.67-27.49-50.71-64.93-50.71
		c-36.02,0-63.98,20.14-63.98,50.48c0,29.39,26.07,44.79,55.93,49.29c21.09,3.32,45.74,7.58,45.74,19.67
		c0,9.48-15.64,15.88-35.31,15.88c-22.51,0-39.1-8.29-39.1-18.96h-30.1C1643.77,205.5,1672.68,228.25,1711.78,228.25z
		 M1880.98,130.61v34.12h51.42c-8.05,16.11-28.2,27.02-53.08,27.02c-31.99,0-56.4-20.62-56.4-48.11s24.41-48.11,56.4-48.11
		c20.14,0,37.2,7.82,46.44,19.43h34.36c-8.77-32.47-41.23-55.93-80.8-55.93c-49.29,0-86.5,36.49-86.5,84.6
		c0,48.11,37.21,84.6,86.5,84.6c29.38,0,49.76-13.03,62.09-35.55v32.7h22.51v-94.79H1880.98z"/>
</g>
</svg>