<svg width="61" height="65" viewBox="0 0 61 65" fill="none" xmlns="http://www.w3.org/2000/svg">
<path d="M14.2322 21.8798C17.3054 10.4102 29.0946 3.60373 40.5642 6.67698L52.7153 9.93286C56.7162 11.0049 59.0906 15.1174 58.0186 19.1184L47.9638 56.6432C46.8918 60.6442 42.7792 63.0186 38.7782 61.9465L13.1042 55.0671C9.1032 53.9951 6.72883 49.8826 7.80089 45.8816L14.2322 21.8798Z" fill="#D4E4FE" stroke="#D4E4FE"/>
<rect x="1.42786" y="3.10645" width="45.393" height="59.0487" rx="7" fill="white" stroke="#D4E4FE" stroke-width="2"/>
<rect x="7.65729" y="10.1392" width="12.0491" height="12.0491" rx="2" fill="#D4E4FE"/>
<rect x="7.65729" y="43.0735" width="32.9341" height="12.0491" rx="2" fill="#D4E4FE"/>
<rect x="25.3293" y="10.9426" width="15.2622" height="3.21309" rx="1.60654" fill="#D4E4FE"/>
<rect x="25.3293" y="18.1719" width="15.2622" height="3.21309" rx="1.60654" fill="#D4E4FE"/>
<rect x="7.65729" y="27.0081" width="32.9341" height="3.21309" rx="1.60654" fill="#D4E4FE"/>
<rect x="7.65729" y="35.0408" width="32.9341" height="3.21309" rx="1.60654" fill="#D4E4FE"/>
</svg>
