<svg width="24" height="24" viewBox="0 0 24 24" fill="none" xmlns="http://www.w3.org/2000/svg">
<path d="M17.0398 11.0398V8.87984C17.0398 7.54315 16.5088 6.26121 15.5636 5.31603C14.6184 4.37084 13.3365 3.83984 11.9998 3.83984C10.6631 3.83984 9.38117 4.37084 8.43599 5.31603C7.4908 6.26121 6.9598 7.54315 6.9598 8.87984V11.0398C6.9598 13.4158 4.7998 13.9918 4.7998 15.3598C4.7998 16.5838 7.6078 17.5198 11.9998 17.5198C16.3918 17.5198 19.1998 16.5838 19.1998 15.3598C19.1998 13.9918 17.0398 13.4158 17.0398 11.0398Z" stroke="#0246B1" stroke-width="1.5" stroke-miterlimit="10" stroke-linecap="square"/>
<path d="M11.9999 18.9597C11.272 18.9597 10.588 18.9352 9.94434 18.8877C10.0816 19.3254 10.3549 19.7079 10.7247 19.9795C11.0944 20.2511 11.5412 20.3975 11.9999 20.3975C12.4587 20.3975 12.9055 20.2511 13.2752 19.9795C13.6449 19.7079 13.9183 19.3254 14.0555 18.8877C13.4119 18.9352 12.7279 18.9597 11.9999 18.9597Z" fill="#0246B1"/>
</svg>
