<svg width="64" height="64" viewBox="0 0 64 64" fill="none" xmlns="http://www.w3.org/2000/svg">
<path d="M64 32.0001C64 49.673 49.673 64 31.9998 64C14.3267 64 0 49.673 0 32.0001C0 14.327 14.3267 0 31.9998 0C49.673 0 64 14.327 64 32.0001Z" fill="#1158A6"/>
<path d="M56.7022 24.1287H59.7832V39.8717H56.7022V24.1287ZM33.4446 35.7225H35.5606C34.7104 36.6564 33.5126 37.2353 32 37.2353C29.1084 37.2353 26.7646 34.8911 26.7646 32.0002C26.7646 29.1087 29.1085 26.7648 32 26.7648C34.2558 26.7648 36.1778 28.1914 36.9141 30.1915H40.1168C39.291 26.4685 35.9717 23.6838 32 23.6838C27.4068 23.6838 23.6836 27.4071 23.6836 32.0002C23.6836 36.593 27.4068 40.3167 32 40.3167C34.169 40.3167 35.8934 39.5588 37.2216 38.3106V39.8717H40.1169V32.8276H33.4445V35.7225H33.4446ZM48.6343 27.2098H45.5642V31.505H48.6343C49.8208 31.505 50.7821 30.5437 50.7821 29.3575C50.7821 28.1714 49.8208 27.2098 48.6343 27.2098ZM47.3829 34.5864H45.5642V39.8717H42.4832V24.1287H48.6343C51.5224 24.1287 53.8631 26.4698 53.8631 29.3576C53.8631 31.4704 52.6093 33.2891 50.8055 34.114L54.3358 39.8717H50.6235L47.3829 34.5865V34.5864Z" fill="white"/>
</svg>
